<svg width="512" height="512" viewBox="0 0 512 512" fill="none" xmlns="http://www.w3.org/2000/svg">
  <!-- Background Circle -->
  <circle cx="256" cy="256" r="256" fill="url(#gradient)"/>
  
  <!-- Graduation Cap -->
  <path d="M256 128L400 192L256 256L112 192L256 128Z" fill="white" fill-opacity="0.9"/>
  <path d="M400 192V280C400 304 336 328 256 328C176 328 112 304 112 280V192" stroke="white" stroke-width="12" stroke-linecap="round" fill="none"/>
  <path d="M368 208V264C368 280 320 296 256 296C192 296 144 280 144 264V208" fill="white" fill-opacity="0.8"/>
  
  <!-- Book Pages -->
  <rect x="320" y="240" width="60" height="80" rx="4" fill="white" fill-opacity="0.7"/>
  <rect x="328" y="248" width="44" height="4" rx="2" fill="#4CAF50" fill-opacity="0.6"/>
  <rect x="328" y="260" width="36" height="4" rx="2" fill="#4CAF50" fill-opacity="0.4"/>
  <rect x="328" y="272" width="40" height="4" rx="2" fill="#4CAF50" fill-opacity="0.4"/>
  
  <defs>
    <linearGradient id="gradient" x1="0%" y1="0%" x2="100%" y2="100%">
      <stop offset="0%" style="stop-color:#4CAF50;stop-opacity:1" />
      <stop offset="100%" style="stop-color:#8BC34A;stop-opacity:1" />
    </linearGradient>
  </defs>
</svg>